<?xml version="1.0" encoding="UTF-8"?>
<svg id="Laag_1" xmlns="http://www.w3.org/2000/svg" version="1.1" viewBox="0 0 306.14 306.14">
  <!-- Generator: Adobe Illustrator 29.3.1, SVG Export Plug-In . SVG Version: 2.1.0 Build 151)  -->
  <path d="M288.76,30.83c-4.68,6.14-15.66,6.55-25,8.79-3.32.79-6.97,1.4-8.44,3.72-1.74,2.79-3.03,9.04-3.4,13.5-.83,10.15,2.7,18.94,5.38,28.37,7.23,25.38,11.6,61.35,0,86.58-2.85,6.21-7.64,11.67-11.78,16.52-4.53,5.28-9.2,9.94-14.22,13.91-10.46,8.14-22.95,12.55-37.86,18.24,8.07,17.91,17.28,35.79,26.02,54.08.46.92,3.92,6.21.69,7.1-2.25.67-3.32-3.95-4.39-6.07-6.02-12-11.99-24.43-17.89-36.54-2.43-4.89-5.27-9.85-7.1-14.54-.59-1.41-1.71-2.86,0-3.7-2.39-.07-3.94.6-5.76,1.02,8.38,20.65,18.53,40.53,28.06,61.18.81,1.76,4.19,7.55.68,7.77-2.54.17-3.76-4.91-5.08-7.77-9.16-19.74-18.92-40.63-28.04-60.14-32.51,5.46-65.63,8.69-92.98,18.24-24.08,8.44-41.55,23.02-61.49,35.5-2.57,1.57-5.9,4.54-9.49,3.02.84-7.73,8.48-11.23,13.53-15.2,16.36-12.85,31.95-26.14,48.68-39.2,21.14-16.52,40.94-36.06,59.49-57.47,26.99-31.15,52.97-62.99,66.91-108.48,6.09-19.8,10.38-45.75,37.89-42.96,6.43.71,10.15,4.73,16.53,6.78,10.23,3.29,22.82.83,29.06,7.78Z"/>
</svg>