<?xml version="1.0" standalone="no"?>
<!DOCTYPE svg PUBLIC "-//W3C//DTD SVG 20010904//EN"
 "http://www.w3.org/TR/2001/REC-SVG-20010904/DTD/svg10.dtd">
<svg version="1.0" xmlns="http://www.w3.org/2000/svg"
 width="1993.000000pt" height="995.000000pt" viewBox="0 0 1993.000000 995.000000"
 preserveAspectRatio="xMidYMid meet">

<g transform="translate(0.000000,995.000000) scale(0.100000,-0.100000)"
fill="#000000" stroke="none">
<path d="M9358 8099 c-2386 -55 -4606 -456 -6150 -1110 -184 -78 -549 -256
-703 -344 -641 -363 -1078 -791 -1244 -1220 -62 -158 -84 -274 -84 -445 0
-286 81 -516 283 -803 80 -114 337 -375 480 -487 130 -102 406 -286 564 -375
2004 -1132 5762 -1679 9476 -1380 2029 164 3881 604 5120 1216 257 126 397
206 605 344 238 157 356 253 535 434 270 272 416 517 480 806 32 141 32 349 0
490 -86 387 -360 758 -816 1103 -373 281 -918 565 -1532 796 -1821 686 -4348
1037 -7014 975z m1422 -129 c558 -20 1088 -55 1590 -105 2843 -287 5120 -1083
5929 -2073 133 -163 242 -367 288 -538 24 -90 27 -116 27 -274 0 -158 -3 -184
-27 -274 -31 -115 -113 -291 -185 -399 -280 -414 -808 -803 -1546 -1137 -1378
-624 -3334 -1034 -5516 -1155 -882 -48 -1878 -48 -2760 0 -2182 121 -4138 531
-5516 1155 -702 318 -1229 697 -1510 1085 -86 119 -186 324 -221 450 -25 91
-28 115 -28 275 0 160 3 184 28 275 35 126 135 331 221 450 281 388 808 767
1510 1085 1487 674 3634 1093 6031 1179 330 12 1361 12 1685 1z"/>
<path d="M6510 6234 c-261 -26 -483 -131 -684 -323 -251 -242 -390 -599 -389
-1006 0 -281 64 -502 210 -723 164 -248 435 -419 731 -462 119 -18 334 -8 442
20 108 28 286 112 370 176 306 232 498 620 517 1044 16 374 -129 766 -362 978
-149 136 -347 234 -558 276 -77 15 -220 25 -277 20z m-245 -283 c180 -84 391
-299 566 -577 246 -391 402 -906 359 -1189 -54 -360 -331 -375 -671 -36 -165
166 -299 360 -430 626 -86 175 -165 398 -200 565 -29 139 -33 367 -7 451 25
80 74 148 128 177 64 34 161 28 255 -17z"/>
<path d="M11570 6229 c-292 -34 -598 -222 -784 -482 -231 -324 -312 -832 -195
-1229 126 -429 470 -739 888 -799 128 -18 344 -7 456 24 419 117 725 465 842
957 46 197 43 443 -9 660 -20 84 -87 270 -98 270 -3 0 -105 -197 -227 -438
l-221 -438 23 -91 c104 -399 52 -696 -131 -749 -61 -17 -108 -13 -190 18 -111
41 -264 161 -383 302 l-71 84 430 849 c236 467 430 854 430 859 0 14 -132 87
-222 123 -104 41 -218 69 -330 81 -104 11 -103 11 -208 -1z m-206 -277 c96
-45 182 -109 282 -209 78 -79 223 -260 254 -317 12 -23 -6 -61 -235 -513 -136
-268 -250 -492 -254 -496 -12 -12 -124 166 -201 317 -291 575 -330 1132 -86
1242 54 25 160 14 240 -24z"/>
<path d="M2820 4956 l0 -1216 310 0 310 0 0 163 0 164 -62 17 c-237 66 -383
233 -450 515 -17 74 -21 129 -24 396 -4 254 -2 306 8 289 7 -11 202 -361 433
-777 230 -417 422 -757 425 -757 4 0 184 350 401 779 l394 778 3 -783 2 -784
330 0 330 0 0 1215 0 1215 -167 0 -168 -1 -415 -821 c-228 -451 -420 -827
-425 -835 -9 -11 -111 167 -460 797 -388 700 -455 814 -485 833 -30 19 -53 22
-162 26 l-128 3 0 -1216z"/>
<path d="M7937 6163 c-4 -3 -7 -550 -7 -1215 l0 -1208 315 0 315 0 0 163 0
164 -55 12 c-158 36 -306 151 -383 298 -89 171 -115 337 -110 698 l3 229 429
-774 c235 -426 431 -778 435 -782 3 -3 184 345 401 775 l395 781 3 -782 2
-782 330 0 330 0 0 1215 0 1215 -167 -2 -166 -3 -418 -824 c-230 -453 -422
-828 -426 -832 -5 -5 -206 350 -448 787 -242 438 -452 808 -466 824 -14 15
-43 33 -65 39 -42 12 -236 15 -247 4z"/>
<path d="M13030 4956 l0 -1216 310 0 310 0 0 164 0 164 -52 12 c-170 39 -311
155 -391 320 -85 176 -99 276 -95 674 l3 299 899 -824 c494 -453 902 -826 907
-827 5 -2 8 507 7 1220 l-3 1223 -310 0 -310 0 -3 -165 -2 -165 82 -23 c165
-45 285 -146 362 -303 80 -162 110 -341 104 -618 l-3 -144 -765 692 c-421 381
-776 700 -789 709 -17 12 -55 17 -142 20 l-119 4 0 -1216z"/>
<path d="M15117 6163 c-4 -3 -7 -172 -7 -375 l0 -368 144 0 144 0 7 47 c11 74
53 182 101 260 78 125 213 229 369 283 l55 19 0 -1145 0 -1144 325 0 325 0 0
1144 0 1145 28 -9 c248 -73 432 -266 490 -515 l19 -80 142 -3 141 -3 -2 373
-3 373 -1136 3 c-624 1 -1139 -1 -1142 -5z"/>
</g>
</svg>
