<?xml version="1.0" standalone="no"?>
<!DOCTYPE svg PUBLIC "-//W3C//DTD SVG 20010904//EN"
 "http://www.w3.org/TR/2001/REC-SVG-20010904/DTD/svg10.dtd">
<svg version="1.0" xmlns="http://www.w3.org/2000/svg"
 width="1922.000000pt" height="1391.000000pt" viewBox="0 0 1922.000000 1391.000000"
 preserveAspectRatio="xMidYMid meet">

<g transform="translate(0.000000,1391.000000) scale(0.100000,-0.100000)"
fill="#000000" stroke="none">
<path d="M4497 13899 c-60 -4 -111 -10 -115 -13 -20 -21 80 -136 153 -174 44
-24 61 -27 150 -27 91 0 105 3 158 29 64 33 115 83 147 145 11 22 20 43 20 46
0 8 -378 3 -513 -6z"/>
<path d="M5336 13873 c-6 -25 3 -91 20 -149 6 -22 6 -22 -43 2 -112 56 -249
55 -355 -3 -69 -38 -148 -127 -173 -194 -28 -76 -26 -194 4 -272 30 -76 114
-167 188 -203 84 -42 221 -45 318 -8 12 5 6 -9 -18 -42 -75 -105 -92 -254 -44
-374 l26 -63 -32 30 c-47 44 -80 61 -144 78 -73 19 -114 19 -188 0 -98 -26
-184 -95 -233 -188 -24 -47 -27 -62 -27 -157 0 -125 17 -171 92 -251 131 -140
337 -151 496 -27 123 98 159 266 91 433 -6 15 2 11 31 -14 69 -60 137 -85 248
-89 86 -4 97 -6 91 -21 -49 -116 -59 -188 -41 -288 l7 -42 -57 27 c-50 23 -71
27 -153 27 -88 0 -101 -3 -163 -33 -83 -41 -156 -112 -194 -189 -25 -53 -28
-68 -28 -163 0 -95 3 -111 28 -162 78 -160 245 -253 405 -227 26 4 52 8 59 8
7 1 2 -18 -13 -46 -32 -63 -47 -143 -42 -220 3 -55 2 -63 -12 -57 -83 37 -129
46 -215 42 -63 -3 -104 -11 -138 -26 -47 -21 -51 -16 -16 23 69 77 87 251 37
357 -35 76 -98 142 -167 175 -49 25 -67 28 -151 28 -83 0 -102 -3 -150 -27
-68 -33 -142 -106 -172 -167 -33 -69 -37 -197 -8 -274 27 -71 88 -150 146
-186 81 -52 200 -63 302 -28 l42 15 -36 -49 c-89 -121 -105 -268 -48 -424 7
-19 6 -19 -17 1 -53 48 -110 68 -204 72 -75 3 -100 0 -148 -18 -76 -29 -167
-112 -204 -188 -52 -106 -33 -288 39 -374 l23 -27 245 122 c1016 508 2242 885
3603 1107 748 122 1593 193 2235 187 133 -1 242 -1 242 0 0 4 -336 311 -415
378 -946 810 -2124 1484 -3245 1856 -197 65 -530 159 -616 173 -40 7 -41 7
-48 -25 -3 -18 -3 -48 0 -66 7 -35 -2 -41 -36 -23 -30 16 -136 27 -185 20 -25
-4 -45 -6 -45 -5 0 1 8 22 19 46 26 61 34 109 18 114 -37 12 -490 66 -759 89
-66 6 -66 6 -72 -21z m249 -403 c73 -36 67 -35 265 -35 0 0 -10 -25 -22 -55
-17 -43 -22 -77 -22 -155 l-1 -100 -35 17 c-80 40 -208 45 -300 13 l-37 -13
33 55 c49 82 68 199 45 281 -6 18 -7 32 -3 30 4 -2 39 -19 77 -38z m1224 -230
c27 0 32 -3 27 -17 -6 -16 -10 -43 -20 -128 -2 -27 -6 -30 -32 -25 -16 3 -60
5 -97 5 -63 0 -68 1 -62 20 15 54 26 133 22 160 l-5 31 66 -23 c37 -12 82 -23
101 -23z m1099 -200 l54 0 -7 -31 c-4 -17 -7 -57 -8 -89 l0 -57 -59 19 c-33
10 -77 18 -98 18 l-38 0 14 53 c7 28 14 63 14 76 0 22 3 23 38 17 20 -3 61 -6
90 -6z m-1739 -230 c39 -5 77 -7 85 -4 10 4 9 -8 -6 -52 -10 -31 -20 -87 -20
-124 l-2 -68 -42 15 c-29 10 -72 13 -132 11 l-88 -3 24 70 c20 58 24 82 19
142 l-5 71 48 -25 c27 -14 78 -28 119 -33z m1103 -210 l58 0 -6 -87 c-4 -49
-7 -89 -8 -90 -1 -1 -28 5 -61 13 -33 7 -77 14 -97 14 -21 0 -38 1 -38 3 0 1
7 27 15 57 8 30 15 67 15 82 0 25 2 26 32 17 18 -5 59 -9 90 -9z m-627 -440
c69 0 76 -7 65 -55 -5 -22 -10 -65 -10 -96 l0 -56 -57 13 c-32 8 -88 14 -125
14 l-66 0 19 55 c10 30 19 79 19 108 l0 54 53 -18 c28 -10 75 -19 102 -19z
m1071 -137 l82 -5 -14 -52 c-8 -28 -14 -73 -14 -100 l0 -49 -52 9 c-29 4 -76
8 -104 9 l-51 0 14 45 c8 25 15 71 16 103 2 53 4 57 22 52 11 -4 57 -9 101
-12z m-1822 -247 c46 -23 77 -30 146 -34 l87 -5 -20 -51 c-14 -35 -20 -77 -21
-132 l-1 -81 -45 15 c-53 17 -203 19 -242 4 l-26 -11 26 57 c24 51 27 69 27
165 0 59 2 106 5 104 3 -2 31 -16 64 -31z m1235 -216 c53 0 53 0 47 -27 -3
-16 -11 -62 -17 -103 -6 -41 -12 -76 -13 -77 -1 -1 -24 4 -51 12 -26 8 -72 15
-101 15 l-52 0 14 47 c8 25 14 72 14 104 l0 57 53 -14 c28 -7 76 -14 106 -14z
m-739 -440 c31 -11 82 -19 118 -20 34 0 62 -1 62 -2 0 -2 -7 -28 -15 -58 -8
-30 -15 -72 -15 -93 0 -32 -3 -37 -17 -33 -40 12 -128 26 -170 26 l-45 0 9 43
c4 23 8 68 8 100 0 31 2 57 5 57 3 -1 30 -9 60 -20z"/>
<path d="M4007 13830 c-127 -32 -217 -141 -217 -265 0 -81 28 -145 89 -206 63
-64 101 -79 196 -79 141 1 260 110 272 252 7 75 -10 133 -56 194 -62 83 -186
128 -284 104z"/>
<path d="M3145 13665 c-77 -24 -206 -67 -287 -95 -145 -51 -147 -52 -133 -73
27 -39 97 -87 148 -102 129 -38 247 -7 342 89 59 60 83 105 100 194 9 42 4 42
-170 -13z"/>
<path d="M2323 13347 c-141 -70 -163 -84 -163 -104 0 -59 61 -147 125 -180 33
-17 116 -20 156 -4 35 13 97 67 114 100 37 73 23 186 -31 242 -15 16 -30 28
-33 28 -3 -1 -79 -38 -168 -82z"/>
<path d="M3399 13323 c-15 -2 -51 -18 -80 -36 -144 -87 -160 -284 -31 -397
165 -146 434 -6 409 212 -12 101 -96 197 -188 217 -50 11 -62 11 -110 4z"/>
<path d="M4460 13256 c-103 -22 -178 -81 -230 -178 -31 -57 -34 -71 -35 -148
0 -76 3 -92 33 -152 78 -159 254 -231 422 -174 75 26 177 128 204 204 27 76
19 198 -17 268 -70 138 -227 212 -377 180z"/>
<path d="M1685 12940 c-58 -24 -99 -109 -84 -177 40 -191 329 -144 307 50 -6
50 -40 102 -80 123 -29 15 -111 18 -143 4z"/>
<path d="M2758 12868 c-49 -13 -121 -77 -147 -131 -40 -83 -24 -193 40 -262
70 -75 148 -98 243 -71 147 43 217 195 152 331 -54 114 -166 166 -288 133z"/>
<path d="M3819 12776 c-84 -30 -155 -93 -185 -164 -21 -50 -22 -167 -1 -214
24 -57 101 -133 159 -158 72 -31 185 -25 249 12 176 105 205 330 58 462 -78
70 -189 95 -280 62z"/>
<path d="M1105 12446 c-43 -19 -66 -49 -72 -94 -14 -106 93 -178 185 -122 79
48 69 170 -18 215 -35 18 -56 18 -95 1z"/>
<path d="M2119 12357 c-125 -66 -145 -235 -39 -331 83 -75 191 -73 275 5 135
125 45 349 -141 349 -34 0 -65 -8 -95 -23z"/>
<path d="M3207 12246 c-62 -23 -116 -66 -145 -115 -23 -40 -27 -57 -27 -126 0
-87 11 -117 67 -180 116 -133 341 -102 422 58 66 129 17 285 -108 349 -52 27
-157 34 -209 14z"/>
<path d="M4260 12174 c-139 -51 -222 -165 -221 -307 0 -84 18 -140 62 -202
122 -170 372 -179 519 -18 27 29 55 73 64 99 21 63 21 167 -1 228 -23 64 -101
150 -167 183 -66 34 -187 42 -256 17z"/>
<path d="M720 11918 c-27 -15 -54 -89 -44 -121 14 -43 105 -55 147 -19 24 21
24 103 -1 125 -26 23 -72 30 -102 15z"/>
<path d="M1556 11879 c-91 -15 -144 -98 -124 -193 19 -86 82 -131 175 -124 60
5 95 26 131 78 44 65 21 171 -47 215 -46 29 -74 34 -135 24z"/>
<path d="M2586 11786 c-203 -76 -212 -358 -14 -440 51 -21 143 -20 193 3 50
22 109 86 125 136 32 98 -13 223 -100 277 -56 35 -146 45 -204 24z"/>
<path d="M3677 11689 c-89 -21 -178 -96 -218 -182 -26 -57 -25 -160 1 -230 25
-65 96 -142 160 -171 65 -29 178 -28 245 2 191 88 238 333 94 496 -59 68 -189
107 -282 85z"/>
<path d="M901 11354 c-48 -40 -56 -92 -26 -166 11 -28 69 -58 111 -58 99 0
160 104 113 192 -32 59 -144 78 -198 32z"/>
<path d="M1975 11276 c-38 -17 -91 -73 -104 -109 -33 -86 15 -198 104 -244 62
-33 178 -10 227 44 73 80 58 224 -29 291 -29 21 -48 27 -102 29 -41 2 -77 -2
-96 -11z"/>
<path d="M3023 11194 c-51 -18 -112 -76 -137 -128 -44 -93 -27 -226 38 -303
50 -58 114 -86 201 -87 194 -2 316 164 259 353 -18 63 -81 136 -139 162 -49
23 -162 24 -222 3z"/>
<path d="M4159 11100 c-107 -18 -201 -85 -246 -174 -37 -73 -43 -180 -13 -258
26 -71 97 -151 164 -186 44 -23 63 -27 141 -27 71 0 100 5 137 22 63 29 134
96 166 158 23 43 27 62 27 140 0 78 -4 97 -28 147 -63 127 -208 202 -348 178z"/>
<path d="M445 10910 c-14 -5 -23 -26 -37 -86 -23 -103 -22 -109 7 -122 74 -34
165 20 165 98 0 25 -23 72 -43 89 -22 18 -69 29 -92 21z"/>
<path d="M1381 10798 c-76 -21 -122 -79 -123 -157 -1 -156 175 -229 289 -119
125 121 4 322 -166 276z"/>
<path d="M2422 10685 c-152 -47 -208 -221 -113 -352 40 -55 104 -85 182 -84
154 0 259 140 219 291 -17 66 -91 134 -159 149 -64 13 -75 13 -129 -4z"/>
<path d="M3493 10616 c-159 -50 -248 -202 -209 -357 62 -239 347 -317 522
-142 56 56 79 114 78 203 0 99 -28 163 -99 228 -82 75 -189 100 -292 68z"/>
<path d="M718 10260 c-39 -39 -40 -42 -36 -95 8 -93 78 -143 161 -116 145 48
116 251 -36 251 -44 0 -53 -4 -89 -40z"/>
<path d="M1865 10230 c-104 -16 -176 -95 -177 -194 -1 -71 16 -116 60 -159 90
-88 210 -90 296 -3 55 55 74 117 58 193 -25 118 -116 181 -237 163z"/>
<path d="M2892 10140 c-56 -12 -103 -41 -147 -93 -91 -105 -79 -275 25 -376
94 -91 255 -93 358 -5 56 47 83 104 90 181 6 81 -12 143 -59 203 -60 76 -163
111 -267 90z"/>
<path d="M3943 10056 c-199 -64 -297 -259 -234 -465 12 -39 24 -71 26 -71 3 0
60 35 127 79 142 90 431 264 471 282 15 7 27 17 27 22 0 21 -104 110 -159 135
-67 32 -190 40 -258 18z"/>
<path d="M10774 9945 c-341 -78 -576 -351 -639 -740 -19 -116 -19 -335 0 -450
55 -334 209 -576 440 -690 110 -55 207 -75 354 -75 195 0 314 33 447 122 80
53 163 144 215 234 l29 51 0 297 0 296 -236 -2 -237 -3 2 -257 2 -257 -38 -25
c-109 -73 -297 -45 -388 56 -91 100 -129 242 -123 458 4 124 9 156 31 223 33
95 60 139 124 198 77 72 142 93 288 93 105 1 129 -3 192 -26 110 -40 222 -126
300 -233 l22 -30 1 267 0 266 -64 59 c-75 69 -182 125 -292 154 -103 27 -341
35 -430 14z"/>
<path d="M14240 9945 c-175 -28 -321 -101 -415 -207 -89 -102 -160 -285 -185
-483 -15 -121 -13 -388 5 -507 43 -292 152 -496 332 -625 133 -94 280 -135
488 -135 233 1 402 62 545 198 195 186 285 473 275 874 -9 347 -75 552 -224
701 -88 88 -175 135 -311 169 -111 28 -384 36 -510 15z m363 -518 c89 -38 152
-117 184 -231 18 -64 24 -257 12 -356 -26 -211 -115 -355 -242 -392 -70 -20
-167 -14 -228 14 -117 54 -179 157 -210 346 -14 88 -13 293 2 362 31 144 99
225 224 267 53 17 207 11 258 -10z"/>
<path d="M11944 9911 c-2 -2 -4 -427 -4 -943 l0 -938 248 0 247 0 -1 365 c-1
201 2 365 5 365 4 0 101 -164 216 -365 l209 -365 293 0 c161 0 293 2 293 5 0
3 -121 187 -270 410 l-269 404 47 6 c123 17 230 72 308 158 90 100 124 197
131 367 7 180 -21 287 -99 375 -76 88 -206 142 -361 151 -110 7 -987 11 -993
5z m883 -468 c90 -46 110 -196 37 -282 -44 -52 -89 -62 -269 -59 l-160 3 -3
170 c-1 93 0 176 3 184 5 12 34 13 180 9 145 -5 180 -9 212 -25z"/>
<path d="M15933 9912 l-333 -2 0 -940 0 -940 225 0 225 0 2 638 3 639 295
-639 294 -638 301 2 300 3 3 936 c2 745 0 938 -10 940 -7 2 -109 3 -225 1
l-213 -3 -1 -482 c-2 -631 -3 -697 -9 -697 -3 0 -110 258 -239 573 -129 314
-240 581 -247 593 -7 11 -18 20 -26 20 -7 -1 -163 -2 -345 -4z"/>
<path d="M17634 9905 c-2 -5 -5 -430 -6 -943 l-3 -933 435 4 c470 4 495 7 636
63 190 75 344 231 428 433 127 303 123 809 -7 1067 -90 179 -267 293 -481 310
-131 11 -998 10 -1002 -1z m930 -485 c96 -49 145 -137 167 -297 30 -228 -30
-466 -144 -569 -70 -63 -117 -74 -309 -74 l-158 0 0 486 0 486 198 -4 c187 -3
199 -4 246 -28z"/>
<path d="M234 9828 c-16 -7 -23 -22 -28 -62 -3 -29 -9 -66 -12 -83 -9 -47 34
-71 118 -64 9 0 30 12 46 26 95 80 -12 238 -124 183z"/>
<path d="M1185 9687 c-58 -33 -87 -88 -82 -160 6 -94 59 -148 154 -155 152
-10 243 141 160 266 -47 72 -152 94 -232 49z"/>
<path d="M2233 9620 c-49 -25 -99 -79 -119 -126 -19 -46 -17 -131 5 -179 35
-78 132 -145 209 -145 90 0 196 72 228 155 36 97 -4 216 -94 280 -37 25 -54
30 -115 33 -58 2 -80 -1 -114 -18z"/>
<path d="M3333 9566 c-61 -20 -106 -51 -156 -106 -51 -57 -77 -128 -77 -211 0
-55 22 -143 40 -163 5 -4 55 29 112 75 56 46 171 133 253 193 83 60 154 112
159 117 14 13 -22 47 -79 77 -61 31 -185 40 -252 18z"/>
<path d="M588 9184 c-60 -32 -78 -129 -33 -182 81 -96 228 -31 212 92 -12 84
-105 131 -179 90z"/>
<path d="M1649 9136 c-159 -56 -189 -254 -56 -360 36 -29 45 -31 116 -31 70 0
82 3 120 29 99 69 117 205 39 300 -55 67 -138 91 -219 62z"/>
<path d="M2740 9051 c-129 -40 -209 -142 -210 -268 0 -65 25 -150 54 -182 15
-16 9 -25 -73 -112 l-88 -94 -18 35 c-24 49 -73 98 -120 123 -49 25 -143 27
-196 5 -168 -72 -205 -295 -67 -412 22 -19 53 -38 69 -41 16 -4 31 -10 33 -14
3 -4 -45 -68 -106 -142 -190 -231 -478 -625 -593 -811 -25 -39 -36 -48 -75
-58 -94 -23 -172 -106 -186 -197 -4 -25 -1 -70 6 -102 l12 -58 -67 -122 c-149
-272 -291 -598 -395 -911 -37 -113 -71 -218 -75 -235 -5 -23 -17 -35 -53 -53
-55 -26 -82 -60 -92 -115 -9 -49 3 -97 35 -135 l24 -29 -34 -174 c-147 -750
-114 -1489 94 -2116 304 -916 888 -1600 1817 -2132 158 -91 159 -91 162 -65 3
20 7 24 20 18 9 -4 56 -9 104 -12 l86 -4 -19 -45 c-10 -25 -19 -50 -19 -57 0
-35 779 -330 825 -312 8 3 24 37 36 77 18 59 21 86 16 155 -3 46 -3 84 1 84 4
-1 32 -9 62 -20 30 -11 78 -19 105 -20 59 0 159 24 194 47 19 12 17 6 -13 -32
-20 -27 -43 -71 -51 -98 -28 -93 -13 -256 24 -277 38 -20 454 -90 535 -90 27
0 38 7 65 45 46 64 63 119 63 205 0 153 -93 286 -235 334 -72 24 -180 21 -250
-8 l-57 -24 36 40 c20 22 48 66 63 97 23 49 26 68 26 161 0 93 -3 112 -27 163
-38 81 -124 168 -201 203 -55 25 -73 29 -157 28 -52 -1 -107 -6 -122 -12 -34
-14 -34 -12 -4 33 62 90 78 239 38 342 l-20 53 26 -19 c159 -111 358 -96 491
37 69 69 94 129 99 233 5 110 -13 177 -71 256 -46 61 -113 111 -182 134 -66
22 -181 15 -253 -14 l-62 -25 36 40 c20 23 48 66 63 97 23 49 26 69 26 156 0
88 -3 107 -27 158 -36 76 -117 160 -187 194 -71 33 -182 42 -256 19 -27 -8
-51 -13 -54 -11 -2 3 5 15 17 28 11 12 33 49 49 82 25 54 28 71 28 165 0 98
-2 110 -31 169 l-32 63 52 -50 c78 -77 142 -105 251 -110 71 -3 102 0 147 15
59 20 60 19 22 -33 -55 -72 -80 -184 -63 -278 22 -121 100 -224 207 -274 50
-24 70 -27 157 -27 89 0 106 3 156 28 84 41 143 98 181 174 29 60 32 74 32
157 0 116 -25 184 -95 261 -69 74 -139 107 -245 113 -55 3 -98 -1 -133 -11
-56 -16 -61 -14 -32 17 70 75 102 225 75 350 -3 15 -2 26 2 24 127 -62 187
-75 275 -59 34 6 79 19 100 29 l38 19 -35 -43 c-50 -60 -75 -133 -75 -213 0
-105 32 -181 108 -253 68 -65 116 -83 218 -83 76 0 97 4 139 25 76 39 132 94
167 165 25 52 31 75 31 132 0 39 -6 87 -12 109 -29 98 -131 200 -223 225 -62
17 -158 12 -216 -10 l-52 -20 40 44 c52 57 77 108 92 187 14 76 2 165 -32 235
-32 66 -109 145 -175 178 -49 25 -72 30 -154 33 -77 3 -105 0 -147 -16 -29
-11 -53 -18 -53 -15 0 2 11 19 25 38 72 93 86 262 32 378 l-27 59 37 -33 c20
-17 62 -44 93 -58 47 -22 69 -26 150 -26 88 0 101 3 162 33 146 71 227 210
215 367 -6 84 -43 178 -86 219 -25 24 -43 28 -261 55 -354 46 -776 81 -1205
101 -168 8 -1253 5 -1330 -4 -22 -2 -87 -7 -145 -11 -58 -4 -152 -13 -210 -20
-58 -7 -106 -12 -108 -10 -1 1 138 103 309 226 172 123 380 273 463 332 178
128 325 222 535 343 84 49 155 94 158 101 3 7 13 13 23 13 10 0 83 34 162 75
78 41 216 112 306 158 138 70 158 82 132 85 l-31 3 8 52 c4 29 7 62 8 75 0 18
4 22 20 18 11 -4 37 -9 58 -12 28 -5 36 -11 33 -23 -10 -34 -18 -91 -12 -91 3
0 49 21 103 46 258 121 809 344 850 344 6 0 19 -13 29 -29 51 -86 180 -84 234
4 18 29 21 47 18 85 l-5 48 146 48 c103 34 158 47 186 44 127 -11 189 -5 247
23 31 15 72 45 92 67 23 26 49 43 78 50 24 6 50 14 58 17 8 3 -52 23 -135 44
-911 238 -1740 656 -2358 1188 -64 55 -120 101 -123 101 -2 0 -17 -9 -33 -21
l-28 -20 -49 30 c-26 17 -64 36 -84 41 -41 11 -114 12 -150 1z m1138 -889 c17
2 32 2 32 -2 0 -3 -7 -30 -15 -60 -8 -30 -15 -68 -15 -84 0 -25 -3 -27 -22
-22 -13 4 -54 12 -91 18 l-69 12 6 29 c3 16 6 53 6 82 l0 52 68 -14 c37 -8 82
-13 100 -11z m-691 -489 c50 -5 51 -6 42 -30 -5 -13 -9 -42 -9 -65 l0 -40 -42
8 c-24 4 -58 6 -76 6 -31 -1 -33 0 -28 26 3 15 8 47 11 70 6 39 9 43 29 37 11
-4 44 -9 73 -12z m1110 -130 c62 -5 73 -9 68 -22 -6 -16 -20 -73 -30 -124 -5
-22 -10 -27 -23 -22 -9 4 -45 12 -79 18 l-63 11 6 35 c3 20 7 45 9 56 2 11 4
31 4 44 1 17 5 22 17 17 10 -4 50 -9 91 -13z m-1744 -306 c54 -9 66 -15 61
-27 -3 -8 -8 -31 -10 -50 -12 -81 -10 -79 -51 -69 -21 5 -53 9 -71 9 l-32 0 2
80 c2 67 5 79 18 74 8 -3 45 -11 83 -17z m-610 -459 c43 -9 48 -13 43 -32 -4
-11 -9 -41 -13 -65 l-6 -43 -36 6 c-20 3 -45 6 -56 6 -19 0 -20 6 -17 76 3 66
6 75 20 69 9 -3 39 -11 65 -17z m823 -1239 c32 -15 77 -23 137 -27 76 -4 87
-7 81 -21 -3 -9 -9 -50 -11 -92 l-5 -77 -57 21 c-41 14 -80 20 -143 19 l-87 0
15 40 c8 22 14 67 14 99 0 33 2 59 4 59 2 0 25 -10 52 -21z m1230 -119 c28 0
73 7 100 15 27 8 50 15 52 15 1 0 -8 -21 -22 -47 -50 -100 -55 -212 -16 -316
l18 -47 -38 30 c-74 59 -124 74 -241 75 l-105 0 28 62 c32 68 49 160 41 221
l-5 39 68 -23 c38 -13 92 -24 120 -24z m-1802 -295 c27 -8 76 -15 109 -15 57
0 59 -1 53 -22 -26 -92 -36 -136 -36 -161 0 -26 -3 -28 -22 -22 -13 3 -58 12
-101 18 -71 10 -78 13 -73 32 3 11 6 57 6 103 0 45 3 82 8 82 4 0 29 -7 56
-15z m1091 -146 c36 -12 150 -14 193 -4 l32 6 -25 -53 c-39 -85 -50 -178 -31
-254 l6 -23 -57 26 c-43 20 -79 28 -140 31 -72 4 -81 7 -74 21 18 36 32 119
32 194 0 70 2 78 17 72 9 -4 31 -11 47 -16z m-1647 -356 c59 -5 63 -7 57 -27
-3 -12 -8 -53 -12 -92 l-6 -70 -61 13 c-33 7 -73 13 -87 13 l-26 0 14 53 c8
28 12 69 11 90 -4 37 -2 38 22 33 14 -4 53 -9 88 -13z m1022 -153 c19 -6 67
-11 106 -11 l72 0 -14 -46 c-8 -25 -16 -68 -18 -97 -3 -35 -8 -50 -17 -48 -7
2 -37 10 -68 18 -30 8 -71 14 -89 14 -31 0 -34 2 -28 23 4 12 10 52 13 90 3
37 6 67 7 67 1 0 17 -5 36 -10z m1030 -82 c79 -32 234 -32 304 0 l48 22 -16
-23 c-47 -63 -71 -132 -74 -214 -2 -46 1 -97 7 -114 6 -17 7 -29 3 -27 -4 2
-30 15 -58 30 -66 35 -157 50 -229 38 -31 -5 -60 -12 -67 -16 -8 -5 -9 -2 -3
12 44 103 57 206 36 282 -5 17 -9 32 -8 32 1 0 27 -10 57 -22z m-1562 -402
c32 1 34 -1 28 -30 -4 -17 -10 -51 -13 -74 -6 -43 -7 -44 -37 -37 -17 3 -53 9
-79 12 -31 4 -46 10 -43 18 2 6 7 38 11 69 l7 57 47 -8 c25 -4 61 -7 79 -7z
m1062 -112 c38 -4 89 -2 119 5 30 6 55 10 57 9 1 -2 -7 -30 -18 -63 -29 -88
-22 -202 18 -283 l30 -60 -56 51 c-67 62 -134 93 -224 106 -37 5 -70 11 -72
13 -2 2 3 26 11 53 8 26 15 79 15 118 l0 69 28 -6 c15 -3 56 -9 92 -12z
m-1755 -340 c27 -8 58 -14 67 -14 17 0 18 -7 12 -67 -4 -38 -8 -69 -9 -71 -1
-1 -22 2 -46 7 -24 6 -64 11 -88 11 -37 0 -42 3 -36 17 3 10 9 46 12 81 5 53
9 62 22 56 9 -4 38 -13 66 -20z m1178 -164 l69 0 -9 -42 c-4 -24 -8 -64 -8
-90 0 -27 -2 -48 -5 -48 -3 0 -31 9 -62 20 -31 11 -74 22 -97 26 l-40 6 5 42
c5 50 12 100 13 103 1 1 16 -3 33 -8 18 -5 64 -9 101 -9z m-636 -485 c9 -3 10
-11 3 -30 -6 -15 -10 -42 -10 -62 0 -29 -3 -34 -17 -29 -9 4 -37 10 -61 13
-42 6 -44 7 -38 36 3 16 6 43 6 59 l0 29 53 -6 c28 -4 58 -8 64 -10z m1256
-37 c-18 -18 -44 -59 -58 -90 -34 -76 -38 -196 -7 -275 l20 -52 -37 29 c-56
45 -128 72 -204 78 -58 4 -67 7 -61 21 27 66 37 117 38 204 1 83 3 96 16 91 8
-3 41 -11 73 -17 63 -12 157 1 207 28 41 23 46 17 13 -17z m-1930 -425 c43 -5
48 -8 43 -27 -3 -12 -6 -36 -6 -54 0 -29 -3 -32 -20 -27 -11 4 -44 8 -73 9
-57 4 -56 1 -42 84 5 29 9 33 28 28 12 -4 44 -9 70 -13z m2086 -170 c104 -42
240 -29 336 34 39 26 39 25 -12 -25 -116 -115 -143 -269 -76 -430 3 -8 -14 0
-37 17 -67 49 -140 71 -230 71 -43 0 -91 -5 -106 -10 -15 -6 -28 -9 -31 -7 -2
2 8 24 21 48 52 94 62 223 27 324 l-20 57 36 -28 c20 -15 62 -38 92 -51z
m-861 22 c2 -2 -2 -21 -8 -42 -7 -21 -10 -67 -8 -101 1 -34 3 -62 2 -62 0 0
-27 11 -60 24 -32 13 -81 27 -107 31 l-48 7 8 47 c4 25 7 60 6 77 l0 32 106
-5 c58 -3 107 -7 109 -8z m-733 -475 l44 0 -6 -52 c-3 -29 -7 -54 -8 -56 -2
-3 -107 17 -112 21 -2 2 0 25 3 51 5 35 10 46 21 42 8 -4 34 -6 58 -6z m1000
-37 c47 -18 167 -20 209 -4 16 7 30 10 33 8 2 -2 -11 -35 -29 -73 -30 -63 -33
-77 -33 -165 l0 -97 -39 20 c-51 26 -163 49 -203 42 -39 -7 -39 -4 -17 74 12
41 15 79 11 140 -4 75 -3 83 12 76 9 -4 34 -13 56 -21z m-519 -535 c73 1 75 0
68 -21 -16 -49 -24 -95 -24 -139 0 -27 -3 -48 -7 -48 -5 0 -30 7 -57 15 -27 8
-65 15 -84 15 -32 0 -34 2 -28 28 3 15 9 57 12 95 6 61 9 67 26 61 11 -3 53
-6 94 -6z m1027 -96 c52 -8 139 -2 185 12 18 6 16 -1 -16 -65 -35 -68 -37 -76
-37 -169 l0 -97 -55 26 c-43 19 -76 26 -147 29 -51 3 -93 8 -93 12 0 4 7 27
15 50 9 25 15 83 16 144 l2 103 37 -18 c21 -10 63 -22 93 -27z"/>
<path d="M88 8733 c-12 -3 -17 -22 -23 -86 -3 -45 -9 -89 -11 -98 -6 -22 48
-41 92 -33 48 9 76 44 82 103 4 47 2 53 -31 86 -34 34 -61 41 -109 28z"/>
<path d="M1044 8622 c-104 -49 -125 -169 -45 -255 36 -38 43 -41 102 -45 82
-4 125 17 157 78 27 53 28 92 3 146 -35 78 -136 113 -217 76z"/>
<path d="M471 8130 c-50 -12 -82 -49 -88 -103 -10 -86 52 -146 138 -134 70 9
116 77 102 149 -6 32 -56 88 -78 88 -7 0 -19 2 -27 4 -7 2 -28 0 -47 -4z"/>
<path d="M8279 8116 c-2 -2 -71 -6 -154 -10 -82 -4 -204 -13 -269 -19 l-120
-12 -8 -30 c-5 -16 -6 -42 -4 -57 5 -26 4 -27 -27 -20 -18 4 -69 7 -115 7 -65
0 -81 3 -77 13 3 8 8 25 11 39 l7 26 -69 -7 c-326 -32 -724 -100 -1211 -207
l-101 -22 -11 -43 c-43 -169 57 -362 224 -434 59 -26 183 -37 237 -22 l38 10
-24 -41 c-55 -94 -69 -211 -41 -321 21 -78 56 -136 120 -194 89 -81 198 -120
303 -108 49 6 54 5 47 -11 -40 -95 -47 -124 -48 -193 0 -41 3 -92 7 -113 l7
-38 -49 25 c-100 51 -236 52 -340 4 -26 -12 -74 -49 -108 -83 -49 -49 -64 -72
-82 -128 -37 -115 -24 -229 40 -329 40 -63 89 -105 166 -141 55 -26 75 -30
145 -29 95 1 150 18 225 69 115 78 181 229 154 351 -6 24 -7 41 -4 40 95 -51
132 -62 215 -66 76 -4 87 -7 82 -21 -18 -44 -32 -143 -28 -194 2 -31 2 -57 0
-57 -2 0 -25 7 -51 16 -70 24 -194 16 -266 -18 -110 -51 -197 -146 -226 -247
-19 -62 -21 -181 -5 -223 l10 -26 -54 28 c-116 61 -227 63 -339 7 l-63 -32 28
35 c69 86 91 218 55 326 -34 102 -136 197 -241 225 -118 32 -275 -17 -360
-114 -58 -67 -80 -130 -79 -229 1 -65 6 -87 33 -142 39 -80 117 -154 188 -179
96 -34 228 -21 308 30 l40 26 -27 -30 c-16 -16 -28 -34 -28 -39 0 -6 18 -16
40 -23 l41 -12 -34 -39 c-108 -126 -63 -346 87 -422 49 -25 146 -34 203 -19
133 36 226 174 203 301 -4 22 -6 40 -4 40 9 0 393 -138 482 -172 87 -35 102
-44 102 -63 0 -37 28 -104 60 -145 67 -84 209 -116 306 -69 l43 20 102 -71
c194 -136 210 -150 174 -150 -47 0 -134 -70 -154 -123 -36 -94 20 -222 112
-256 108 -41 256 35 273 140 l7 40 34 -33 c73 -70 234 -283 276 -365 l17 -32
-35 6 c-79 13 -176 -41 -216 -120 -47 -91 -1 -220 94 -266 91 -44 203 -16 260
66 l31 44 32 -88 c17 -48 44 -136 59 -196 l27 -107 -21 -43 c-35 -72 -25 -142
27 -195 33 -33 36 -41 42 -116 10 -116 3 -349 -15 -506 -22 -191 -22 -190 -53
-190 -62 -1 -139 -55 -161 -113 -26 -68 3 -160 63 -199 20 -13 36 -29 36 -36
0 -7 -18 -58 -40 -113 l-40 -100 18 -35 18 -35 77 93 c407 491 647 1061 733
1743 14 108 18 217 18 480 1 312 -9 710 -19 795 -2 19 -9 107 -15 195 -6 88
-22 279 -36 425 -104 1105 -294 2192 -519 2963 l-16 57 -388 0 c-213 0 -390
-2 -392 -4z m508 -152 c50 -6 51 -7 43 -33 -5 -14 -11 -43 -15 -64 -5 -34 -9
-38 -28 -33 -12 3 -45 9 -73 12 l-51 6 13 54 c7 30 10 54 8 54 -3 0 -2 5 2 11
3 6 16 8 28 5 11 -3 44 -8 73 -12z m-1792 -199 c29 -8 83 -15 119 -15 36 0 66
-2 66 -5 0 -3 -9 -34 -21 -68 -14 -40 -22 -90 -23 -142 l-1 -81 -40 15 c-43
16 -187 21 -242 9 l-32 -7 18 32 c49 85 59 213 25 319 -5 16 0 15 36 -11 23
-16 66 -37 95 -46z m1173 -249 c29 -3 36 -7 34 -22 -1 -11 -5 -44 -9 -75 l-6
-56 -36 8 c-20 5 -58 9 -85 9 -46 0 -48 1 -42 25 3 13 9 51 12 83 l7 59 44
-13 c25 -8 61 -15 81 -18z m-621 -433 c64 -6 65 -7 58 -32 -3 -14 -9 -63 -12
-108 -3 -46 -8 -83 -10 -83 -3 0 -30 7 -61 16 -37 11 -77 15 -122 12 l-66 -5
23 66 c13 37 23 91 23 123 l0 56 51 -19 c29 -11 81 -23 116 -26z m1081 -180
c73 -6 74 -6 67 -32 -3 -14 -9 -52 -12 -84 -5 -54 -7 -58 -27 -53 -11 4 -54
11 -94 17 -68 11 -73 13 -68 33 3 11 9 47 13 79 5 53 8 58 27 52 12 -3 54 -8
94 -12z m-718 -409 c30 -8 78 -14 108 -14 46 0 53 -2 48 -17 -17 -55 -26 -116
-26 -174 l0 -66 -52 13 c-29 8 -88 14 -131 14 -71 0 -79 2 -74 18 27 84 37
136 37 191 0 56 2 62 18 56 9 -3 42 -13 72 -21z m1145 -164 c28 -4 53 -6 58
-3 10 6 9 -16 -3 -57 -6 -19 -11 -56 -11 -81 l-2 -45 -50 13 c-28 7 -67 13
-85 13 -33 0 -34 0 -28 38 3 20 7 61 8 90 l3 53 30 -6 c17 -3 53 -10 80 -15z
m-608 -510 l51 0 -14 -52 c-7 -29 -14 -70 -14 -91 l0 -38 -62 8 c-35 4 -80 7
-101 7 -37 -1 -38 0 -33 25 3 14 9 60 12 102 l7 75 51 -18 c28 -9 74 -17 103
-18z m-620 -438 c62 -4 73 -7 69 -21 -14 -44 -26 -109 -26 -140 0 -30 -2 -33
-22 -26 -13 3 -69 9 -126 12 -90 5 -102 8 -97 22 14 36 21 100 17 154 l-4 57
58 -27 c40 -18 81 -28 131 -31z m1046 -148 c37 -8 73 -11 79 -8 8 5 9 -2 3
-22 -4 -16 -10 -51 -14 -79 -6 -47 -8 -50 -33 -49 -16 0 -59 1 -97 2 l-68 2
13 58 c8 31 14 72 14 91 0 27 3 32 18 26 9 -4 48 -13 85 -21z m-653 -464 c19
-5 56 -11 82 -11 26 -1 48 -5 48 -8 0 -3 -7 -28 -15 -55 -8 -27 -15 -65 -15
-84 0 -31 -2 -34 -22 -28 -13 3 -48 9 -79 12 l-55 6 7 47 c4 25 8 65 8 89 1
23 2 42 4 42 1 0 18 -4 37 -10z"/>
<path d="M1485 8056 c-74 -33 -117 -104 -116 -190 1 -117 86 -201 201 -200 94
1 172 62 196 153 24 95 -26 200 -113 237 -41 18 -128 17 -168 0z"/>
<path d="M7 7663 c-11 -18 -8 -233 3 -233 24 0 78 29 94 51 20 29 21 101 2
138 -19 37 -86 66 -99 44z"/>
<path d="M870 7559 c-61 -25 -100 -85 -100 -156 0 -145 177 -215 277 -111 76
80 57 212 -38 260 -37 20 -100 22 -139 7z"/>
<path d="M5799 7514 c-56 -17 -141 -90 -172 -148 -18 -33 -22 -58 -22 -131 0
-81 3 -95 30 -144 104 -187 343 -215 483 -56 105 119 97 291 -17 406 -85 84
-186 109 -302 73z"/>
<path d="M10725 7419 c-171 -22 -315 -90 -425 -199 -75 -75 -120 -154 -150
-264 -18 -66 -21 -98 -18 -195 7 -175 54 -277 174 -374 84 -68 193 -118 394
-177 269 -80 320 -108 320 -175 0 -83 -56 -127 -181 -145 -82 -12 -163 -5
-266 21 -146 37 -305 129 -359 208 l-24 36 2 -260 3 -260 60 -37 c79 -48 210
-101 310 -124 122 -29 353 -26 460 4 123 36 209 86 296 172 120 119 170 251
163 431 -12 269 -169 439 -484 525 -339 92 -400 128 -372 223 10 32 22 46 56
66 25 14 59 30 78 36 46 14 210 14 288 -1 146 -27 286 -104 350 -192 l30 -41
0 277 0 277 -62 39 c-157 99 -439 156 -643 129z"/>
<path d="M15795 7414 c-334 -50 -572 -288 -666 -667 -26 -105 -37 -376 -20
-498 58 -404 257 -673 571 -771 64 -19 96 -23 220 -23 175 0 263 18 383 77 99
50 221 166 280 268 l37 65 0 297 0 298 -236 -2 -236 -3 0 -257 1 -257 -30 -25
c-16 -14 -49 -31 -72 -37 -58 -16 -172 -7 -229 18 -138 62 -219 246 -219 498
0 287 104 472 299 532 66 20 225 19 298 -2 110 -32 174 -72 272 -171 l92 -93
0 262 0 261 -56 53 c-59 55 -173 119 -259 146 -117 38 -302 51 -430 31z"/>
<path d="M11800 6435 l0 -945 23 4 c12 3 273 5 580 5 l557 1 0 230 0 230 -325
0 -325 0 0 710 0 710 -255 0 -255 0 0 -945z"/>
<path d="M13657 7373 c-3 -5 -30 -100 -61 -213 -30 -113 -143 -524 -250 -915
-107 -390 -196 -718 -198 -728 -3 -18 9 -19 247 -18 l250 0 50 200 50 201 276
0 277 0 11 -32 c5 -18 29 -105 51 -193 23 -88 45 -164 50 -169 13 -13 510 -13
510 0 0 9 -478 1799 -496 1857 -5 16 -32 17 -384 17 -208 0 -381 -3 -383 -7z
m452 -681 c40 -183 71 -338 69 -343 -3 -10 -305 -15 -315 -6 -2 3 30 141 72
308 93 372 96 382 99 378 2 -2 36 -154 75 -337z"/>
<path d="M4155 7070 c-74 -16 -119 -73 -117 -149 0 -50 21 -84 72 -118 87 -60
210 14 210 126 0 93 -78 160 -165 141z"/>
<path d="M247 7030 c-57 -45 -57 -145 0 -189 39 -32 122 -29 162 5 53 44 54
123 1 175 -24 25 -36 29 -83 29 -39 0 -61 -6 -80 -20z"/>
<path d="M5164 6956 c-41 -18 -102 -92 -110 -133 -19 -102 20 -186 106 -230
77 -40 157 -28 218 30 41 39 53 61 62 110 16 85 -40 191 -117 223 -41 18 -119
17 -159 0z"/>
<path d="M17281 6894 c-137 -37 -246 -128 -308 -260 -31 -65 -37 -88 -41 -169
-6 -115 18 -202 79 -294 71 -107 185 -178 320 -201 229 -39 464 116 525 345
20 73 17 192 -5 264 -74 237 -331 379 -570 315z"/>
<path d="M6227 6876 c-87 -31 -159 -105 -187 -190 -18 -57 -9 -181 18 -233 34
-65 78 -110 138 -139 148 -72 337 -3 410 151 33 70 33 179 0 250 -29 63 -111
138 -173 159 -56 19 -154 20 -206 2z"/>
<path d="M3484 6551 c-82 -50 -64 -187 29 -218 45 -15 95 -2 128 33 20 21 24
36 24 86 0 55 -3 62 -33 89 -39 35 -100 39 -148 10z"/>
<path d="M4520 6478 c-52 -36 -73 -71 -78 -131 -6 -73 11 -120 60 -161 92 -79
236 -44 277 67 30 80 -5 184 -75 224 -54 31 -139 31 -184 1z"/>
<path d="M704 6456 c-17 -8 -44 -31 -60 -52 -24 -31 -29 -47 -29 -95 0 -65 18
-98 75 -136 96 -66 234 15 233 136 -1 58 -22 102 -64 132 -39 27 -112 35 -155
15z"/>
<path d="M5620 6375 c-63 -20 -114 -66 -146 -131 -23 -47 -26 -63 -22 -117 6
-76 34 -134 88 -179 132 -114 347 -49 396 118 28 97 7 172 -69 252 -64 66
-152 86 -247 57z"/>
<path d="M2873 6106 c-78 -35 -89 -152 -19 -208 27 -22 104 -23 134 -2 28 19
52 65 52 99 0 34 -28 93 -49 104 -33 18 -86 21 -118 7z"/>
<path d="M120 5989 c-19 -4 -45 -20 -58 -35 -21 -25 -24 -35 -19 -92 6 -83 25
-104 101 -110 53 -4 57 -3 91 31 31 31 35 41 35 86 0 41 -5 56 -27 81 -33 36
-75 49 -123 39z"/>
<path d="M3925 5961 c-64 -39 -91 -102 -73 -168 45 -169 298 -137 298 37 0
113 -131 190 -225 131z"/>
<path d="M5018 5876 c-99 -27 -158 -105 -158 -207 1 -87 39 -152 115 -194 l30
-17 -32 6 c-80 14 -163 18 -163 9 0 -6 13 -28 29 -50 56 -77 131 -115 231
-115 37 0 83 7 103 16 46 19 108 66 102 76 -3 4 -48 16 -100 26 -90 17 -125
34 -70 34 37 0 97 34 133 74 72 82 68 198 -10 282 -56 60 -130 82 -210 60z"/>
<path d="M5461 5369 c-93 -17 -196 -108 -227 -201 -22 -68 -16 -187 14 -245
55 -107 143 -164 262 -171 102 -5 175 22 246 92 132 133 113 365 -39 473 -71
50 -161 69 -256 52z"/>
<path d="M4813 4945 c-145 -45 -243 -174 -245 -319 -1 -113 32 -196 108 -273
70 -69 141 -98 244 -98 71 0 94 5 142 27 190 88 268 311 170 491 -37 69 -117
140 -185 165 -67 25 -167 28 -234 7z"/>
<path d="M5907 4686 c-141 -51 -212 -209 -161 -359 20 -60 82 -130 142 -158
68 -33 168 -32 238 4 57 29 118 92 142 146 20 47 20 165 0 212 -24 55 -87 119
-143 145 -58 27 -156 32 -218 10z"/>
<path d="M7038 4537 c-151 -43 -226 -216 -154 -354 23 -45 86 -101 132 -119
52 -20 153 -15 199 9 82 43 136 128 136 217 1 173 -150 292 -313 247z"/>
<path d="M5299 4286 c-102 -22 -194 -100 -230 -196 -29 -77 -23 -194 14 -266
110 -215 412 -236 555 -39 41 56 56 108 55 191 -1 126 -65 230 -176 283 -74
36 -142 44 -218 27z"/>
<path d="M6397 4079 c-174 -27 -271 -222 -192 -385 48 -98 131 -147 247 -146
149 2 260 114 261 262 1 172 -144 296 -316 269z"/>
<path d="M7474 3857 c-105 -34 -166 -148 -142 -263 13 -58 82 -136 136 -152
154 -46 291 51 292 207 0 151 -141 254 -286 208z"/>
<path d="M5725 3616 c-56 -26 -119 -90 -142 -145 -9 -20 -16 -65 -16 -101 0
-148 98 -261 240 -276 208 -22 355 169 286 372 -21 63 -104 148 -159 163 -67
19 -153 13 -209 -13z"/>
<path d="M6830 3427 c-19 -6 -58 -34 -86 -62 -43 -42 -54 -61 -64 -107 -33
-149 77 -288 227 -288 65 0 107 16 158 61 97 85 102 237 11 338 -53 59 -162
85 -246 58z"/>
<path d="M5174 3229 c-97 -18 -181 -80 -224 -165 -35 -71 -39 -180 -10 -258
26 -68 92 -141 155 -170 57 -28 169 -33 234 -11 76 25 144 83 177 152 25 50
29 69 28 143 0 103 -23 158 -95 230 -66 66 -168 97 -265 79z"/>
<path d="M7950 3228 c-52 -15 -90 -46 -111 -92 -65 -143 60 -297 209 -257 83
23 132 88 132 176 0 56 -18 92 -65 133 -46 41 -107 56 -165 40z"/>
<path d="M6235 2999 c-86 -16 -138 -52 -183 -128 -23 -40 -27 -57 -27 -126 0
-90 19 -136 77 -192 94 -90 262 -87 356 6 55 56 67 87 67 181 0 64 -5 94 -19
120 -23 45 -73 98 -109 117 -40 20 -114 30 -162 22z"/>
<path d="M4525 2786 c-66 -21 -98 -41 -151 -98 -66 -70 -89 -130 -89 -233 0
-71 4 -89 33 -147 36 -74 96 -133 170 -170 71 -35 197 -33 272 4 68 33 141
105 172 167 19 38 23 62 23 141 0 84 -3 102 -28 152 -37 76 -127 158 -197 181
-61 20 -148 21 -205 3z"/>
<path d="M7315 2789 c-45 -13 -105 -67 -126 -113 -56 -123 14 -276 140 -306
164 -39 306 98 270 262 -28 123 -156 195 -284 157z"/>
<path d="M8421 2619 c-82 -33 -125 -101 -119 -190 6 -89 64 -153 151 -170 58
-11 110 5 157 47 46 42 64 89 58 155 -12 118 -140 201 -247 158z"/>
<path d="M5627 2549 c-130 -31 -208 -131 -209 -268 -2 -207 187 -333 383 -254
50 20 132 109 147 160 52 173 -60 349 -233 366 -27 3 -67 1 -88 -4z"/>
<path d="M6675 2337 c-92 -45 -135 -113 -135 -215 0 -108 74 -198 180 -221
185 -40 337 148 259 319 -38 85 -102 129 -198 137 -45 3 -66 -1 -106 -20z"/>
<path d="M7750 2158 c-24 -13 -57 -40 -74 -61 -26 -32 -31 -49 -34 -106 -3
-57 0 -75 21 -117 29 -58 49 -78 100 -99 103 -43 225 4 278 107 50 98 -4 241
-107 284 -51 22 -133 18 -184 -8z"/>
<path d="M4970 2137 c-58 -16 -105 -45 -152 -94 -56 -57 -79 -118 -79 -209 0
-66 4 -85 31 -140 48 -98 133 -161 238 -178 50 -7 152 8 195 30 49 26 108 86
135 138 36 69 38 206 5 278 -30 66 -95 132 -154 157 -62 27 -159 35 -219 18z"/>
<path d="M6032 1907 c-52 -16 -128 -90 -149 -145 -40 -105 -9 -231 77 -304
174 -150 454 3 427 232 -11 89 -79 181 -159 215 -42 17 -146 19 -196 2z"/>
<path d="M4333 1726 c-103 -34 -181 -103 -225 -202 -30 -69 -30 -187 1 -266
28 -71 93 -145 163 -183 49 -28 61 -30 153 -30 84 0 107 4 147 24 75 37 134
95 170 169 30 60 33 75 33 152 -1 70 -5 95 -27 142 -35 75 -98 141 -165 175
-67 32 -183 41 -250 19z"/>
<path d="M7139 1715 c-59 -19 -123 -87 -139 -146 -33 -123 48 -257 166 -275
169 -25 298 113 254 274 -12 47 -67 115 -110 137 -42 22 -119 26 -171 10z"/>
<path d="M8192 1509 c-61 -31 -94 -78 -100 -144 -6 -69 10 -113 56 -158 72
-70 172 -71 249 -4 82 72 86 185 10 266 -60 63 -138 78 -215 40z"/>
<path d="M5410 1483 c-69 -25 -145 -107 -166 -178 -68 -236 166 -435 393 -335
23 10 63 40 88 65 122 126 86 339 -72 432 -58 34 -173 42 -243 16z"/>
<path d="M6485 1266 c-57 -27 -84 -53 -115 -113 -26 -51 -29 -143 -5 -200 78
-186 349 -193 440 -10 44 88 30 186 -37 262 -75 85 -182 109 -283 61z"/>
<path d="M7575 1075 c-60 -21 -122 -91 -130 -148 -10 -64 0 -107 35 -155 36
-50 67 -71 120 -83 123 -28 240 70 240 200 0 142 -130 234 -265 186z"/>
<path d="M4780 1071 c-80 -26 -166 -96 -200 -162 -26 -50 -40 -144 -30 -205
17 -103 84 -195 178 -241 46 -23 68 -27 137 -27 69 0 91 4 137 27 66 32 131
100 161 165 30 69 28 191 -5 264 -31 65 -98 134 -158 161 -49 22 -176 33 -220
18z"/>
<path d="M5845 841 c-99 -45 -155 -130 -155 -235 0 -81 17 -129 63 -182 102
-115 265 -125 382 -22 66 58 85 101 85 191 0 162 -104 267 -265 267 -46 0 -83
-7 -110 -19z"/>
<path d="M6995 656 c-46 -20 -94 -64 -116 -108 -28 -55 -27 -150 1 -211 28
-59 81 -101 118 -94 41 8 278 97 297 111 22 16 31 97 16 152 -14 52 -74 122
-125 145 -48 22 -147 24 -191 5z"/>
<path d="M5293 449 c-88 -16 -179 -84 -218 -164 -28 -55 -28 -183 -1 -243 l20
-43 255 3 255 3 20 35 c30 51 29 166 -3 237 -26 59 -101 134 -156 157 -45 19
-116 25 -172 15z"/>
<path d="M6364 336 c-105 -26 -203 -108 -250 -209 -33 -73 -32 -76 24 -66 355
59 612 116 612 135 0 20 -89 95 -144 120 -64 29 -171 39 -242 20z"/>
</g>
</svg>
