<svg xmlns="http://www.w3.org/2000/svg" viewBox="0 0 24 24" fill="currentColor" class="size-6">
  <path fill-rule="evenodd" d="m11.54 22.351.07.04.028.016a.76.76 0 0 0 .723 0l.028-.015.071-.041a16.975 16.975 0 0 0 1.144-.742 19.58 19.58 0 0 0 2.683-2.282c1.944-1.99 3.963-4.98 3.963-8.827a8.25 8.25 0 0 0-16.5 0c0 3.846 2.02 6.837 3.963 8.827a19.58 19.58 0 0 0 2.682 2.282 16.975 16.975 0 0 0 1.145.742Z" clip-rule="evenodd" />
  <text x="12" y="14" text-anchor="middle" fill="white" font-size="8" font-family="Raleway, Arial, Helvetica, sans-serif" font-weight="bold">NUMBER</text>
</svg>