<?xml version="1.0" encoding="UTF-8"?>
<svg id="Laag_1" xmlns="http://www.w3.org/2000/svg" version="1.1" viewBox="0 0 306.14 306.14">
  <!-- Generator: Adobe Illustrator 29.3.1, SVG Export Plug-In . SVG Version: 2.1.0 Build 151)  -->
  <defs>
    <style>
      .st0 {
        fill: #1d1d1b;
        fill-rule: evenodd;
      }
    </style>
  </defs>
  <path className="st0" d="M185.81,127.54s.69-1.22.01-1.91c-.69-.68-3.19-1.59-4.33-2.96,0,0,1.02-.34.68-1.15-.34-.8-1.71-2.17-1.71-2.17,0,0,.91-.91.91-2.05s-.57-2.17-.57-2.17c0,0,.8-.57.69-1.6-.12-1.03-1.71-2.85-1.71-2.85,0,0,.34-.91.11-1.93-.23-1.03-1.6-2.51-1.6-2.51,0,0,.34-.8.34-1.59s-2.17-2.62-2.17-2.62c0,0,0-.46-.23-1.37-.23-.91-1.59-1.48-1.59-1.48,0,0,.11-.8-.46-1.82-.57-1.03-2.05-1.6-2.05-1.6,0,0,.11-1.14-.46-1.94-.57-.8-2.05-1.03-2.05-1.03,0,0,.23-.68-.68-1.71-.91-1.03-2.17-1.37-2.17-1.37,0,0,.23-1.02-.23-1.59-.45-.57-1.59-.57-1.59-.57,0,0,0-1.14-.69-1.83-.68-.68-2.28-1.25-2.28-1.25,0,0,.34-1.25-.34-2.05-.68-.8-2.85-1.6-2.85-1.6,0,0,.11-1.14-.23-1.82-.34-.69-3.08-1.6-3.08-1.6,0,0,.34-.68-.23-1.82-.57-1.14-3.54-2.4-3.54-2.4,0,0-.3-1.73-.8-2.73-.68-1.37-3.87-2.51-3.87-2.51,0,0,0-.8-.57-1.94-.57-1.14-2.05-1.6-2.05-1.6,0,0-.12-1.03-.57-1.71-.46-.68-1.71-1.14-1.71-1.14,0,0-.42-1.96-1.03-3.42-.91-2.17-3.88-3.64-3.88-3.64,0,0,.49-1.52-1.48-3.76-1.59-1.82-4.67-2.05-4.67-2.05,0,0,.18-2.24-1.03-3.87-1.94-2.62-5.7-2.85-5.7-2.85,0,0-.11-2.51-.8-3.88-.68-1.37-2.05-2.85-3.42-3.31-.97-.32-2.51-.57-2.51-.57,0,0-1.14-6.38-4.56-9.58-.77-.72-2.62-1.37-2.85.23-.23,1.59-1.02,7.3-1.02,7.3-.23,1.71-.34-4.57-1.26-7.98s-2.4-6.61-3.76-8.55c-1.37-1.93-2.16-2.39-3.08-2.39s-.91,2.16-.91,3.42c0,1.94.12,4.33.46,7.52.44,4.12,1.03,9.58.8,11.51,0,0-.68-6.83-1.7-9.57-1.03-2.74-2.28-6.27-3.54-8.78-1.25-2.51-3.53-6.04-4.9-7.41-1.37-1.37-2.51-1.37-2.39.91.11,2.28.68,6.04,1.37,9.01.68,2.96,2.43,9.14,2.73,10.83.46,2.51,1.37,8.77,1.37,8.77,0,0-2.39-9.58-3.65-12.88-1.25-3.31-3.3-8.32-5.01-10.95-1.71-2.62-3.19-4.21-4.11-5.35-.91-1.14-1.71-.57-1.71.91s.23,3.53,1.03,6.72c.8,3.19,1.71,7.18,2.39,8.67.69,1.48,1.48,2.62,1.71,4.33.23,1.71,1.72,6.38,2.4,8.44,0,0-3.07-7.63-4.68-10.26-1.59-2.62-4.56-6.16-5.58-7.52-1.03-1.37-1.26-.11-1.26,1.25s1.14,5.7,1.71,7.98c.57,2.28,2.17,5.35,3.65,9.12,1.48,3.76,3.53,9,5.93,13.22,2.39,4.22,4.56,8.78,5.58,11.28,1.03,2.51,3.19,3.88,4.45,5.81,1.25,1.94,1.82,2.51,1.94,3.53.11,1.03.8,2.85,1.93,4.56,1.14,1.71,1.94,3.19,3.19,4.68,1.25,1.48,1.94,2.51,3.08,3.64s1.93,1.37,2.96,2.85c1.03,1.48,1.48,2.05,2.96,3.08,1.48,1.03,3.42,2.62,5.02,4.22,1.6,1.6,5.47,5.7,8.21,9.91,2.73,4.22,5.13,8.21,6.72,12.08,1.6,3.88,2.85,7.18,2.97,9.24.11,2.05.11,2.51-.23,3.87-.34,1.37-.23,2.97-.68,3.76-.46.8-.57,1.71-1.26,2.51-.68.8-1.71.91-2.96,2.05-1.26,1.14-2.85,2.28-3.88,3.19-1.02.91-3.76,2.39-4.56,4.21-.8,1.82-1.02,4.45-1.14,5.92-.11,1.48.34,2.51.34,2.51,0,0-.23,1.94,0,3.25.2,1.18.44,1.56,1.01,2.13.57.57,1.16.28,1.16.28,0,0,.42.47,1.08.62.48.1,1.39.2,1.59-.52.22-.78.65-1.19,1.22-2.11.36-.56.77-1.37.77-1.37,0,0,.8-.11,1.37-.8.57-.68,1.71-1.37,2.51-1.59.8-.23,1.6-.46,3.42-.46s4.9,0,6.5.23c1.59.23,2.85.23,4.67,1.48,1.83,1.25,2.85,2.74,3.54,4.33.68,1.6,2.05,4.33,3.19,7.41,1.14,3.08,2.73,6.96,3.76,10.38,1.03,3.42,3.08,10.14,3.65,13.68.57,3.53,1.48,12.65,1.71,16.18.23,3.53.57,6.84,1.02,9.46.46,2.62,1.03,4.44,1.6,7.18.57,2.74,1.71,6.04,2.51,7.87.8,1.82,2.28,3.42,2.28,3.42,0,0,1.25,4.21,1.82,7.06.57,2.85,1.48,7.41,2.05,9,.57,1.6,3.08,6.5,4.11,9.46,1.02,2.96,3.19,9,4.21,11.85,1.02,2.85,2.85,7.75,3.76,9.69.91,1.94,2.28,3.99,3.3,3.87,1.03-.11,1.91-1.72,1.94-3.64.02-1.26-1.02-6.27-1.02-6.27,0,0,3.32,6.88,4.45,8.95,1.13,2.07,2.71,5.32,4.02,6.54,1.32,1.22,3.08.91,3.74-.67.66-1.57.28-3.15-.09-4.56-.37-1.41-1.29-4.68-1.29-4.68,0,0,3.02,5.69,3.65,6.82s2.33,4.14,3.74,5.63c1.41,1.48,3.39,2.3,3.65.82.26-1.48.28-3.93-.09-5.97-.38-2.05-1.41-4.1-2.26-5.79-.85-1.69-4.21-8.33-4.21-8.33,0,0,4.89,6.85,6.09,8.42,1.2,1.58,2.87,3.72,4.29,5.6,1.41,1.88,2.75,2.89,3.29,3.64.55.75,1.58.17,1.58-.94s.19-2.45-.19-3.75c-.37-1.29-1.2-3.81-1.95-5.69-.76-1.88-2.33-4.14-2.99-5.15s-2.07-3.93-2.07-3.93c0,0,2.24,2.71,3.27,3.64,1.03.94,1.72,1.79,2.54,2.36.82.56,1.86,0,1.77-1.23-.1-1.22-.38-3.38-.76-4.58-.37-1.2-1.29-3.44-1.67-4.48-.37-1.03-2.07-2.73-2.07-2.73,0,0,1.51.02,1.79-.82.28-.84.37-2.14,0-3.84-.38-1.7-2.61-6-2.61-6,0,0,1.57-.16,1.76-1.39.19-1.22.19-3.55,0-4.59-.19-1.03-1.76-3.64-1.76-3.64,0,0,1.39-1.01,1.48-2.42.09-1.41-.38-3.56-.85-4.78-.47-1.22-1.29-2.36-1.29-2.36,0,0,.73-.82.73-1.85s-.64-3.18-1.1-3.75c-.48-.56-1.41-.75-1.41-.75,0,0,.56-1.01.56-1.76s-.94-2.17-.94-2.17c0,0,.19-1.57.19-2.42,0-1.6-1.39-3.74-1.39-3.74,0,0,1.2-1.2,1.2-2.8s-1.58-3.37-1.58-3.37c0,0,1.39-1.43,1.39-2.64,0-1.48-1.57-2.89-1.57-2.89,0,0,.95-1.8.66-2.9-.38-1.41-1.51-2.33-1.51-2.33,0,0,.94-2.56.56-3.02-.37-.45-1.03-.35-1.03-.35,0,0,.94-3.08.66-3.83-.28-.75-.75-1.13-.75-1.13,0,0,.37-2.7,0-3.46-.37-.75-.94-.94-.94-.94,0,0,.75-2.8.38-3.47-.38-.65-1.01-1.03-1.01-1.03,0,0,.65-2.8.18-3.64-.47-.85-1.41-.83-1.41-.83,0,0,.56-2.73.19-4.02-.27-.92-1.41-.85-1.41-.85,0,0,.37-2.89.09-3.74-.28-.84-1.2-.56-1.2-.56,0,0,.71-2.33.26-3.08-.44-.75-1.76-1.22-1.76-1.22,0,0,.28-2.61-.18-3.37-.47-.75-1.58-1.13-2.33-.28-.75.84-1.22,1.44-1.96,1.44s-1.13-.38-1.13-.38c0,0,.83-.52,1.4-1.25.56-.73.65-1.29.84-2.33.19-1.03-.28-2.33-.94-3.08-.66-.75-1.67-1.41-1.67-1.41,0,0,.28-1.67-.47-2.42s-2.26-1.32-2.26-1.32c0,0,.38-1.58.09-2.52-.28-.94-1.01-1.13-1.57-.94-.56.19-1.41-.09-1.41-.09,0,0,.56-1.2.56-1.77s-.94-.75-.19-2.07c0,0,2.14.2,3.46.66,2.17.75,4.21,1.1,7.11,2.05,2.9.94,5.91,1.88,8.33,2.45,2.42.56,6.89,1.95,8.77,2.23,1.88.29,5.73.51,6.66.56,1.57.09,1.57-1.86,1.57-1.86.48-.57,1.24-1.88,1.24-2.64s-1.32-.82-1.32-.82c0,0,.65-1.22.75-2.35.09-1.13-1.41-2.52-1.41-2.52,0,0,.67-.3.67-1.5s-.94-1.67-.94-1.67c0,0,.56-1.44.37-2.26-.19-.83-.91-1.1-.91-1.1,0,0-.09-1.53-.38-2.92-.28-1.38-1.98-1.86-1.98-1.86,0,0,.19-1.06-.28-1.6-.47-.53-1.48-.53-1.48-.53,0,0,0-1.42-.56-1.79,0,0,.69-1.88,0-3.27-.37-.75-.94-1.13-1.23-1.6-.28-.47-1.57-.64-1.57-.64,0,0,.09-1.97-.28-2.64-.38-.65-1.82-2.23-2.26-2.7-.44-.47-1.38-.56-1.67-.47,0,0-.4-1.2-1.6-1.58-1.2-.38-2.73.35-3.74,1.01s-3.62,2.05-5.79,3.09c-2.16,1.03-6.75,2.99-9.08,3.74-2.33.75-3.62.94-5.22,1.51-1.6.56-1.97.75-2.45.75s-1.29-.1-1.29-.1Z"/>
</svg>